<svg xmlns="http://www.w3.org/2000/svg" enable-background="new 0 0 404 180" viewBox="0 0 404 180"><polygon fill="#d9003d" points="19.5 160.2 75.7 160.2 19.5 104"/><polygon fill="#d9003d" points="384.5 19.8 328.3 19.8 384.5 76"/><polygon fill="#d9003d" points="98.1 126.5 131.8 160.2 187.9 160.2 154.2 126.5"/><polygon fill="#d9003d" points="19.5 19.8 19.5 47.8 53.2 81.5 53.2 53.5 81.2 53.5 47.6 19.8"/><polygon fill="#d9003d" points="384.5 132.1 350.8 98.4 350.8 126.5 322.8 126.5 356.4 160.2 384.5 160.2"/><polygon fill="#d9003d" points="305.9 53.5 272.2 19.8 216 19.8 249.7 53.5"/><polygon fill="#d9003d" points="193.5 53.5 159.9 19.8 103.7 19.8 137.4 53.5"/><polygon fill="#d9003d" points="210.4 126.5 244 160.2 300.2 160.2 266.6 126.5"/><path fill="#fff" d="M156.1,78.6c-1.2-1-2.8-1.5-4.8-1.5h-5.9v12.2h5.9c2.1,0,3.6-0.5,4.8-1.6s1.7-2.5,1.7-4.5V83
		C157.9,81.1,157.4,79.6,156.1,78.6"/><polygon fill="#fff" points="246.8 95.3 255.5 95.3 251.1 81.6"/><path fill="#fff" d="M311.8,112.4c-3.2-1.1-6.2-2.8-9-5.2l6.4-8.8c1.9,1.5,3.9,2.8,6.1,3.8s4.4,1.5,6.6,1.5
		c1.6,0,2.8-0.3,3.6-0.9c0.8-0.6,1.2-1.5,1.2-2.5v-0.1c0-0.5-0.1-0.8-0.3-1.3c-0.2-0.4-0.5-0.8-1.1-1.2s-1.2-0.8-2.1-1.2
		c-0.9-0.4-2-0.8-3.4-1.3c-2.2-0.8-4.2-1.5-6.1-2.4c-1.8-0.8-3.4-1.8-4.8-2.9c-1.3-1.2-2.4-2.5-3.1-3.9c-0.8-1.5-1.1-3.3-1.1-5.5
		v-0.2c0-2.2,0.4-4.1,1.2-5.8c0.8-1.8,1.9-3.3,3.3-4.5c1.5-1.3,3.2-2.2,5.3-3c2.1-0.7,4.4-1.1,6.9-1.1c3.2,0,6.1,0.5,8.9,1.3
		c2.8,0.9,5.4,2.3,7.8,4.4l-6.1,9c-1.6-1.2-3.3-2.3-5.2-3.1c-1.8-0.8-3.8-1.2-5.7-1.2c-1.4,0-2.5,0.3-3.2,0.8
		c-0.8,0.6-1.1,1.3-1.1,2.2v0.1c0,0.5,0.1,1,0.3,1.4c0.2,0.4,0.6,0.8,1.2,1.2c0.5,0.4,1.3,0.8,2.3,1.3c0.9,0.5,2.2,0.9,3.6,1.5
		c2.2,0.7,4.2,1.5,6,2.3s3.3,1.8,4.5,3s2.2,2.5,2.8,3.9c0.7,1.5,1,3.2,1,5.2v0.2c0,2.3-0.5,4.3-1.3,6.1c-0.8,1.8-2,3.4-3.5,4.6
		c-1.5,1.3-3.3,2.2-5.4,2.9c-2.1,0.7-4.4,1-6.9,1C318.5,114.1,315.1,113.5,311.8,112.4 M291.6,95.7v17.7h-12.1V95.9l-15.1-29.3h13.3
		l7.8,16.9l7.9-16.9h13.1L291.6,95.7z M261.2,113.4l-2.8-8.5h-14.7l-2.7,8.5h-12.4l16.4-47h12.1l16.5,47
		C273.9,113.4,261.2,113.4,261.2,113.4L261.2,113.4z M217.4,111.7c-3,1.1-6.3,1.7-10.1,1.7h-15.1V66.6h15.4c3.8,0,7.1,0.5,10,1.6
		s5.4,2.6,7.5,4.6c2,2,3.5,4.4,4.6,7.2s1.5,5.9,1.5,9.4v0.8c0,3.5-0.5,6.6-1.5,9.5c-1.1,2.8-2.6,5.3-4.6,7.3
		C222.8,109,220.4,110.6,217.4,111.7 M186.3,113.4h-12.1V66.6h12.1V113.4z M157.7,113.4l-7.9-14.5h-4.3v14.5h-12V66.6h18.4
		c6.3,0,11,1.6,14.1,4.8c1.3,1.3,2.3,2.8,3,4.6s1.1,3.9,1.1,6.3v0.3c0,3.5-0.8,6.3-2.3,8.5s-3.5,4-6.1,5.2l9.6,17L157.7,113.4
		L157.7,113.4L157.7,113.4z M129.9,77.4h-19.8v8.3h17.8v10.4h-17.8v17.3H98V66.6h31.8v10.8H129.9z M78.3,96.3h-0.5
		c-7,0-11.9-4.8-11.9-11.3c0-3.4,1-5.8,2.8-8.1l4.6,3.4c-1.1,1.2-1.9,2.6-1.9,4.6c0,3,2.6,5.2,6.5,5.2h0.3c4.3,0,6.7-2.3,6.7-5.3
		c0-1.2-0.2-2.1-0.7-2.7h-3.5v3.7H76v-9.4h11.1c1.6,2.2,2.9,5.1,2.9,8.6C90.1,91.4,85.6,96.3,78.3,96.3 M89.7,108.3h-18v5.8h-5.5
		V96.5h5.5v5.8h18V108.3z M66.3,66.6h23.4v6H66.3C66.3,72.6,66.3,66.6,66.3,66.6z M350.7,126.5V98.4l33.7,33.7V75.9l-56.1-56.1
		h-56.2l33.7,33.7h-56l-33.7-33.7H160l33.7,33.7h-56.2l-33.7-33.7H47.6l33.7,33.7H53.2v28.1L19.5,47.9V104l56.2,56.2h56.2
		l-33.7-33.7h56.2l33.7,33.7h56.2l-33.7-33.7h56.2l33.7,33.7h56.2l-34-33.7H350.7L350.7,126.5z"/><path fill="#fff" d="M207.6,77.4h-3.5v25.3h3.5c3.3,0,6.1-1,8.1-3c2.1-2,3.1-5.1,3.1-9.3v-0.6c0-4.2-1-7.4-3.1-9.4
		C213.6,78.4,211,77.4,207.6,77.4"/><polygon points="98.1 113.4 110.2 113.4 110.2 96.1 127.9 96.1 127.9 85.7 110.2 85.7 110.2 77.4 129.9 77.4 129.9 66.5 98.1 66.5"/><path d="M157.9,83.3c0,1.8-0.5,3.4-1.7,4.5s-2.8,1.6-4.8,1.6h-5.9V77.2h5.9c2,0,3.6,0.5,4.8,1.5
		C157.4,79.7,158,81.2,157.9,83.3L157.9,83.3L157.9,83.3z M167.7,91.2c1.5-2.2,2.3-5.1,2.3-8.5v-0.3c0-2.4-0.4-4.5-1.1-6.3
		c-0.7-1.8-1.7-3.4-3-4.6c-3.1-3.2-7.8-4.8-14.1-4.8h-18.4v46.8h12V99h4.3l7.9,14.5h13.6l-9.6-17C164.2,95.2,166.2,93.4,167.7,91.2"/><rect width="12.1" height="46.8" x="174.2" y="66.6"/><path d="M218.8 90.3c0 4.2-1 7.3-3.1 9.3s-4.8 3-8.1 3h-3.5V77.3h3.5c3.3 0 6.1 1 8.1 3 2.1 2 3.1 5.1 3.1 9.4V90.3zM231.1 90.2v-.8c0-3.5-.5-6.5-1.5-9.4-1.1-2.8-2.5-5.2-4.6-7.2-2-2-4.5-3.5-7.5-4.6-2.9-1.1-6.3-1.6-10-1.6h-15.4v46.8h15.1c3.8 0 7.1-.5 10.1-1.7 3-1.1 5.5-2.7 7.5-4.7s3.5-4.5 4.6-7.3C230.5 96.8 231.1 93.7 231.1 90.2M246.8 95.3l4.4-13.7 4.4 13.7H246.8zM245.2 66.4l-16.4 47h12.4l2.7-8.5h14.7l2.8 8.5H274l-16.5-47H245.2z"/><polygon points="293.5 66.6 285.6 83.5 277.7 66.6 264.4 66.6 279.5 95.9 279.5 113.4 291.6 113.4 291.6 95.7 306.6 66.6"/><path d="M334.2,110.1c1.5-1.3,2.7-2.8,3.5-4.6c0.8-1.8,1.3-3.8,1.3-6.1v-0.2c0-2-0.3-3.8-1-5.2
		c-0.7-1.5-1.6-2.8-2.8-3.9c-1.2-1.2-2.8-2.2-4.5-3c-1.8-0.8-3.8-1.6-6-2.3c-1.5-0.5-2.7-1-3.6-1.5s-1.7-0.8-2.3-1.3
		c-0.5-0.4-0.9-0.8-1.2-1.2c-0.2-0.4-0.3-0.8-0.3-1.4v-0.1c0-0.9,0.4-1.6,1.1-2.2c0.8-0.6,1.8-0.8,3.2-0.8c1.9,0,3.8,0.4,5.7,1.2
		c1.8,0.8,3.6,1.8,5.2,3.1l6-8.9c-2.5-2-5.1-3.5-7.8-4.4c-2.8-0.9-5.7-1.3-8.9-1.3c-2.5,0-4.8,0.4-6.9,1.1c-2.1,0.7-3.8,1.7-5.3,3
		s-2.5,2.8-3.3,4.5c-0.8,1.8-1.2,3.7-1.2,5.8v0.2c0,2.2,0.4,4,1.1,5.5c0.8,1.5,1.8,2.8,3.1,3.9c1.3,1.1,2.9,2.1,4.8,2.9
		c1.8,0.8,3.8,1.6,6.1,2.4c1.4,0.5,2.5,0.9,3.4,1.3s1.6,0.8,2.1,1.2c0.5,0.4,0.8,0.8,1.1,1.2c0.2,0.4,0.3,0.8,0.3,1.3v0.1
		c0,1-0.4,1.8-1.2,2.5c-0.8,0.6-2.1,0.9-3.6,0.9c-2.3,0-4.5-0.5-6.6-1.5s-4.2-2.2-6.1-3.8l-6.4,8.8c2.8,2.4,5.8,4.2,9,5.2
		c3.2,1.1,6.6,1.6,10.1,1.6c2.5,0,4.8-0.3,6.9-1C330.9,112.4,332.7,111.4,334.2,110.1"/><polygon points="71.7 96.5 66.2 96.5 66.2 114.1 71.7 114.1 71.7 108.3 89.7 108.3 89.7 102.3 71.7 102.3"/><path d="M76,76.4v9.4h4.7v-3.7h3.5c0.5,0.7,0.7,1.5,0.7,2.7c0,3-2.4,5.3-6.7,5.3h-0.3c-3.9,0-6.5-2.3-6.5-5.2
		c0-2,0.8-3.4,1.9-4.6l-4.6-3.4c-1.8,2.3-2.8,4.7-2.8,8.1c0,6.5,4.9,11.3,11.9,11.3h0.5c7.3,0,11.8-4.8,11.8-11.2
		c0-3.5-1.3-6.4-2.9-8.6L76,76.4L76,76.4z"/><rect width="23.4" height="6" x="66.3" y="66.6"/></svg>